<svg version="1.1" id="Layer_1" xmlns="http://www.w3.org/2000/svg" xmlns:xlink="http://www.w3.org/1999/xlink" x="0px" y="0px"
	 viewBox="0 0 119.1 119.1" enable-background="new 0 0 119.1 119.1" xml:space="preserve">
<path fill="#ffed70" d="M75.6,0l36.8,0.3c2.8,0,6.3,3.5,6.3,6.3l0.3,36.8c0,2.8-3.5,2.8-6.3-0.1L75.7,6.3C72.9,3.5,72.9,0,75.6,0z"
	/>
<path fill="#ffed70" d="M79.6,56.1L111,24.6c1.4-1.4,1.4-3.6,0-5L99.4,8.1c-1.4-1.4-3.6-1.4-5,0L63,39.5c-1.4,1.4-1.4,3.6,0,5
	l11.5,11.5C75.9,57.4,78.2,57.4,79.6,56.1z"/>
<path fill="#ffed70" d="M43.4,119.1l-36.8-0.3c-2.8,0-6.3-3.5-6.3-6.3L0,75.6c0-2.8,3.5-2.8,6.3,0.1l37.1,37.1
	C46.2,115.6,46.2,119.1,43.4,119.1z"/>
<path fill="#ffed70" d="M39.5,63L8.1,94.4c-1.4,1.4-1.4,3.6,0,5L19.6,111c1.4,1.4,3.6,1.4,5,0l31.4-31.4c1.4-1.4,1.4-3.6,0-5
	L44.5,63C43.2,61.6,40.9,61.6,39.5,63z"/>
</svg>