<svg version="1.1" id="Layer_1" xmlns="http://www.w3.org/2000/svg" xmlns:xlink="http://www.w3.org/1999/xlink" x="0px" y="0px"
	 viewBox="0 0 160 160" enable-background="new 0 0 160 160" xml:space="preserve">
<path fill="#ffed70" d="M55.3,160h-4c-6.9,0-12.5-5.6-12.5-12.5V12.5C38.8,5.6,44.5,0,51.4,0h4c6.9,0,12.5,5.6,12.5,12.5v134.9
	C67.9,154.4,62.2,160,55.3,160z"/>
<path fill="#ffed70" d="M108.5,160h-4c-6.9,0-12.5-5.6-12.5-12.5V12.5C92,5.6,97.7,0,104.6,0h4c6.9,0,12.5,5.6,12.5,12.5v134.9
	C121.1,154.4,115.4,160,108.5,160z"/>
</svg>