<svg version="1.1" id="Layer_1" xmlns="http://www.w3.org/2000/svg" xmlns:xlink="http://www.w3.org/1999/xlink" x="0px" y="0px"
	 viewBox="0 0 119.1 119.1" enable-background="new 0 0 119.1 119.1" xml:space="preserve">
<path fill="#ffed70" d="M105.4,57.1l-36.8-0.3c-2.8,0-6.3-3.5-6.3-6.3L62,13.7c0-2.8,3.5-2.8,6.3,0.1l37.1,37.1
	C108.2,53.6,108.2,57.1,105.4,57.1z"/>
<path fill="#ffed70" d="M101.5,1L70.1,32.4c-1.4,1.4-1.4,3.6,0,5L81.6,49c1.4,1.4,3.6,1.4,5,0l31.4-31.4c1.4-1.4,1.4-3.6,0-5
	L106.5,1C105.1-0.3,102.9-0.3,101.5,1z"/>
<path fill="#ffed70" d="M13.7,62l36.8,0.3c2.8,0,6.3,3.5,6.3,6.3l0.3,36.8c0,2.8-3.5,2.8-6.3-0.1L13.7,68.3
	C10.9,65.5,10.9,62,13.7,62z"/>
<path fill="#ffed70" d="M17.6,118.1L49,86.6c1.4-1.4,1.4-3.6,0-5L37.4,70.1c-1.4-1.4-3.6-1.4-5,0L1,101.5c-1.4,1.4-1.4,3.6,0,5
	l11.5,11.5C13.9,119.4,16.2,119.4,17.6,118.1z"/>
</svg>