<svg version="1.1" id="Layer_1" xmlns="http://www.w3.org/2000/svg" xmlns:xlink="http://www.w3.org/1999/xlink" x="0px" y="0px"
	 viewBox="0 0 131.3 122.2" enable-background="new 0 0 131.3 122.2" xml:space="preserve">
<path fill="#ffed70" d="M63.1,121.3L2.6,66.5C0,64.1,0,58.1,2.6,55.7L63.1,0.9c2.7-2.4,6,0.6,6,5.4v109.6
	C69.1,120.7,65.8,123.7,63.1,121.3z"/>
<path fill="#ffed70" d="M41.1,83.5H4.2c-2.2,0-4-1.8-4-4V42.7c0-2.2,1.8-4,4-4h36.9c2.2,0,4,1.8,4,4v36.9
	C45.1,81.7,43.3,83.5,41.1,83.5z"/>
	<g> <path fill="#ffed70" d="M88.8,100.1c21.1-21.8,21.1-56.2,0-77.9c-5.4-5.6-13.9,2.9-8.5,8.5c16.6,17.1,16.6,43.9,0,61
			C74.9,97.1,83.4,105.6,88.8,100.1L88.8,100.1z"/> </g>

	<g> <path fill="#ffed70" d="M107.5,118.7c31.3-31.9,31.3-83.4,0-115.3c-5.4-5.5-13.9,3-8.5,8.5c26.8,27.3,26.8,71.1,0,98.3
			C93.6,115.8,102,124.3,107.5,118.7L107.5,118.7z"/> </g>
</svg>